<?xml version="1.0" standalone="no"?>
<!DOCTYPE svg PUBLIC "-//W3C//DTD SVG 20010904//EN"
 "http://www.w3.org/TR/2001/REC-SVG-20010904/DTD/svg10.dtd">
<svg version="1.0" xmlns="http://www.w3.org/2000/svg"
 width="1280.000000pt" height="1280.000000pt" viewBox="0 0 1280.000000 1280.000000"
 preserveAspectRatio="xMidYMid meet">

<g transform="translate(0.000000,1280.000000) scale(0.100000,-0.100000)"
fill="#000000" stroke="none">
<path d="M6135 12794 c-892 -49 -1694 -245 -2443 -599 -154 -72 -182 -86 -372
-188 -352 -187 -782 -489 -1130 -791 -165 -143 -505 -487 -651 -657 -889
-1041 -1410 -2306 -1521 -3694 -16 -207 -16 -726 0 -930 92 -1137 446 -2166
1065 -3095 659 -989 1630 -1806 2712 -2285 1073 -475 2259 -650 3405 -504
1787 227 3382 1185 4427 2656 1004 1415 1392 3229 1052 4928 -275 1373 -971
2597 -2004 3524 -1042 934 -2351 1501 -3736 1616 -180 15 -666 26 -804 19z
m-1013 -3781 l3 -1168 1275 0 1275 0 5 1165 5 1165 45 0 45 0 3 -1167 2 -1168
1201 0 1200 0 -3 -47 -3 -48 -1197 -3 -1198 -2 0 -1283 0 -1282 1197 0 1198 0
3 -47 3 -48 -1200 0 -1201 0 0 -1230 0 -1230 -50 0 -50 0 0 1230 0 1230 -1277
-2 -1278 -3 -3 -1228 -2 -1227 -50 0 -50 0 0 1230 0 1230 -1197 2 -1198 3 0
45 0 45 1198 0 1197 0 0 1282 0 1283 -1197 2 -1198 3 -3 48 -3 47 1200 0 1201
0 0 1163 c0 640 3 1167 7 1170 3 4 26 7 50 7 l43 0 2 -1167z m-977 1137 c10
-11 15 -26 11 -36 -3 -9 3 -27 14 -41 17 -22 19 -36 15 -95 -3 -38 -8 -80 -11
-93 -5 -19 -2 -25 9 -25 22 0 54 -44 61 -85 4 -20 0 -72 -8 -118 -9 -45 -15
-100 -14 -122 0 -22 2 -177 4 -345 1 -168 6 -329 10 -357 l7 -53 73 0 c71 0
74 -1 74 -23 0 -13 3 -27 8 -31 4 -4 12 -67 18 -139 7 -73 17 -181 22 -242 28
-293 29 -288 -60 -283 -49 3 -53 5 -56 30 -4 33 -40 42 -117 31 -41 -7 -50
-12 -55 -33 -5 -21 -13 -26 -44 -28 -22 -2 -50 -1 -64 3 l-25 6 7 92 c20 274
44 545 49 554 8 13 -12 211 -25 246 -7 19 -17 27 -34 27 -19 0 -24 -5 -24 -27
-1 -16 -8 -46 -16 -68 -33 -88 -44 -150 -44 -248 0 -173 -41 -229 -147 -201
-31 9 -34 27 -12 71 18 34 20 55 18 213 -1 96 0 200 3 230 5 45 2 58 -13 70
-17 14 -17 23 -8 120 11 108 32 231 44 263 10 23 -15 22 -62 -3 -33 -18 -41
-30 -64 -98 -25 -71 -77 -218 -207 -589 -45 -126 -49 -144 -34 -152 14 -8 14
-11 0 -33 -19 -28 -40 -130 -30 -139 4 -4 24 -12 45 -19 31 -10 38 -16 34 -31
-5 -17 -1 -18 47 -13 42 5 61 2 94 -15 23 -12 62 -24 87 -28 34 -4 45 -10 43
-22 -5 -26 -62 -57 -130 -71 -35 -7 -74 -18 -88 -25 -14 -7 -59 -16 -100 -19
-47 -5 -82 -14 -93 -24 -17 -15 -87 -20 -171 -13 -44 4 -142 44 -163 67 -19
21 -22 32 -17 67 9 60 26 74 114 93 90 19 90 19 111 59 13 26 20 30 51 27 l35
-2 17 64 c19 69 37 101 57 101 18 0 23 12 105 250 77 221 92 265 158 450 20
55 36 101 36 102 0 2 -9 3 -19 3 -28 0 -32 11 -23 61 6 34 14 47 35 57 25 12
57 58 57 82 0 5 -15 10 -32 10 -51 0 -63 13 -63 69 0 43 6 58 53 125 29 42 58
91 64 108 6 18 17 41 25 50 18 20 111 44 124 31 5 -5 5 -29 1 -53 -6 -35 -14
-48 -34 -58 -31 -14 -60 -79 -30 -67 9 4 31 12 47 18 59 20 60 20 61 88 0 35
5 73 12 84 6 11 18 37 27 58 8 22 23 41 33 44 10 2 23 18 29 34 9 23 17 29 41
29 16 0 37 -9 47 -20z m4949 1 c65 -29 122 -89 140 -152 29 -95 15 -115 -25
-37 -11 22 -23 38 -26 35 -3 -3 9 -32 26 -63 37 -69 38 -86 7 -127 -13 -18
-33 -61 -45 -97 -12 -36 -32 -82 -46 -102 -14 -20 -25 -39 -25 -42 0 -3 23
-15 50 -27 91 -39 114 -86 165 -337 27 -130 27 -134 9 -154 -11 -11 -35 -28
-54 -36 -27 -12 -31 -17 -17 -20 20 -4 97 42 97 59 0 5 5 7 10 4 15 -9 12 -61
-5 -75 -11 -9 -14 -38 -14 -130 0 -123 -6 -170 -23 -170 -6 0 -7 11 -4 26 7
27 10 223 4 229 -2 2 -22 1 -45 -2 -40 -5 -42 -7 -54 -55 -11 -46 -8 -100 7
-170 9 -39 -11 -35 -24 5 -10 32 -10 32 -11 5 -1 -34 -21 -38 -21 -5 0 13 10
65 22 117 30 133 30 299 0 395 -12 39 -33 117 -48 174 -31 126 -49 167 -69
151 -11 -9 -11 -20 1 -68 31 -123 67 -321 61 -336 -11 -28 -57 -38 -198 -43
-95 -4 -138 -2 -143 5 -4 7 -20 71 -36 144 -16 73 -39 179 -52 235 l-23 103
-34 0 c-30 0 -33 -2 -27 -22 51 -172 86 -360 86 -458 0 -37 -9 -102 -21 -146
-32 -121 -33 -123 -18 -128 8 -3 39 -10 69 -16 74 -14 79 -19 100 -81 27 -80
48 -92 140 -79 41 6 135 10 209 9 l135 -3 69 82 c69 83 89 94 110 60 9 -14 0
-29 -51 -87 l-63 -70 49 -15 c102 -30 136 -62 113 -105 -6 -11 -16 -43 -22
-73 -35 -165 -127 -235 -320 -246 -214 -11 -320 51 -374 220 -42 130 -51 150
-68 160 -10 5 -17 6 -17 3 0 -3 -17 3 -37 14 -38 19 -71 49 -72 64 0 9 -55 48
-102 73 -29 15 -31 14 -36 -5 -6 -25 -21 -26 -68 -7 -28 12 -35 20 -35 43 0
25 -8 32 -87 70 -49 24 -106 60 -128 80 -22 21 -46 38 -54 38 -22 0 -37 54
-20 70 40 39 205 58 247 29 18 -12 22 -13 22 -1 0 39 -127 50 -210 18 -27 -11
-50 -15 -50 -10 0 40 184 320 270 413 77 82 116 103 217 117 43 5 85 12 94 15
14 4 16 -2 12 -39 -4 -31 1 -57 15 -88 22 -50 87 -129 106 -129 7 0 33 11 57
23 41 23 46 23 87 9 64 -21 72 -14 72 68 0 45 -4 69 -10 65 -5 -3 -10 -33 -10
-66 0 -64 -5 -68 -54 -49 l-26 10 20 32 c27 45 25 55 -12 62 -47 9 -95 41
-118 78 -32 52 -23 55 20 6 46 -53 99 -81 134 -72 40 10 111 79 136 131 13 27
31 80 41 118 l19 70 -27 61 -27 62 -29 -29 c-41 -42 -81 -60 -146 -66 -31 -4
-78 -17 -106 -29 -43 -21 -51 -22 -65 -9 -22 20 -40 19 -41 -2 -3 -44 4 -70
26 -93 21 -22 24 -34 22 -100 -2 -88 19 -137 79 -190 36 -31 37 -33 18 -47
-40 -30 -64 -28 -95 8 -46 53 -69 104 -69 153 0 25 5 48 10 51 21 13 8 32 -29
44 -117 35 -144 208 -43 279 l27 20 1 -56 c0 -32 4 -65 10 -75 7 -12 10 2 10
55 0 121 62 221 164 267 59 27 153 28 214 2z m-100 -297 c30 -11 16 -20 -25
-16 -28 3 -37 7 -28 13 17 10 32 11 53 3z m157 -31 c13 -15 12 -15 -5 -6 -10
6 -28 8 -40 6 -17 -4 -18 -3 -6 6 21 15 35 14 51 -6z m-361 -26 c0 -5 -4 -5
-10 -2 -5 3 -10 14 -10 23 0 15 2 15 10 2 5 -8 10 -19 10 -23z m150 -8 c0 -7
10 -9 25 -5 19 5 23 3 19 -9 -9 -22 -41 -19 -54 5 -7 14 -7 20 0 20 5 0 10 -5
10 -11z m200 -18 c0 -5 -7 -14 -15 -21 -16 -14 -45 -7 -45 11 0 6 7 9 15 6 8
-4 17 -2 20 3 8 12 25 13 25 1z m-80 -41 c0 -51 -46 -91 -66 -58 -5 8 -2 9 11
4 23 -8 35 9 35 52 0 20 4 31 10 27 6 -3 10 -15 10 -25z m-56 -107 c22 -5 25
-8 13 -14 -17 -10 -77 8 -77 23 0 6 8 7 18 3 9 -3 30 -9 46 -12z m-514 -931
c-1 -4 -10 -47 -20 -97 -11 -49 -25 -160 -32 -247 l-12 -156 -88 -35 -88 -35
0 61 c1 173 51 386 115 489 l36 57 44 -16 c25 -8 45 -18 45 -21z m1411 -118
l34 -20 3 -95 c2 -51 0 -104 -3 -116 -6 -24 -51 -53 -83 -53 -11 0 -22 -6 -25
-14 -3 -8 -21 -19 -39 -25 -18 -5 -69 -24 -113 -41 -122 -47 -324 -120 -380
-136 -71 -20 -99 -18 -300 20 -401 77 -521 103 -512 113 2 2 84 32 182 68 169
61 180 64 197 48 18 -16 18 -17 -4 -28 -13 -7 -68 -27 -123 -45 -109 -37 -111
-38 -103 -45 2 -3 62 15 131 39 104 36 130 41 143 31 14 -10 1 -17 -85 -44
-57 -18 -100 -35 -97 -38 3 -3 51 9 107 27 76 24 106 30 122 23 19 -8 10 -14
-61 -37 -46 -16 -81 -30 -79 -33 3 -2 44 8 92 22 68 21 95 25 119 18 31 -9 31
-9 -34 -32 -36 -13 -71 -25 -79 -27 -8 -3 -12 -7 -9 -9 2 -3 44 9 93 25 87 29
152 39 140 21 -3 -5 -34 -19 -70 -31 -36 -12 -68 -26 -72 -32 -4 -8 0 -9 13
-3 114 47 181 67 253 75 67 7 101 17 165 50 45 22 88 40 96 40 18 1 70 29 54
30 -6 0 -28 -7 -47 -15 -55 -23 -60 -19 -31 25 21 32 33 40 56 40 l30 0 -4 95
c-2 61 1 98 9 106 20 20 76 28 179 25 79 -2 109 -7 135 -22z m-699 -3905 c81
-21 138 -122 122 -216 -8 -46 -8 -47 -12 -14 -3 26 -6 31 -13 20 -7 -11 -9
-10 -9 6 0 16 -2 17 -9 6 -12 -18 -26 48 -17 77 4 10 2 30 -3 43 -9 21 -10 20
-11 -16 -1 -76 -5 -81 -63 -79 -66 2 -94 -20 -39 -31 39 -7 107 -39 134 -62
23 -21 7 -62 -37 -91 -19 -12 -35 -26 -35 -31 0 -11 59 -23 72 -15 12 8 69
-15 84 -33 7 -7 27 -16 45 -18 19 -2 38 -10 44 -17 5 -8 31 -22 56 -31 50 -19
111 -74 136 -121 11 -21 14 -51 11 -106 l-3 -77 -74 -97 c-54 -70 -74 -105
-74 -126 0 -40 4 -43 68 -48 48 -4 58 -8 70 -31 19 -39 3 -63 -38 -57 -18 3
-53 8 -78 11 l-46 6 1 -56 c0 -30 4 -55 9 -55 4 0 5 -5 1 -11 -4 -7 -8 -28
-10 -48 -2 -32 -1 -34 11 -18 12 17 14 16 20 -12 11 -51 29 -56 64 -19 40 43
107 177 126 253 21 85 19 225 -5 320 -11 43 -20 97 -20 119 0 64 -67 152 -138
182 -18 8 -54 30 -80 49 -26 19 -75 47 -109 63 l-60 28 19 42 20 41 39 -15 39
-16 49 41 49 41 66 -46 c36 -25 66 -50 66 -54 0 -5 -9 -32 -20 -60 -11 -28
-20 -53 -20 -55 0 -2 22 -31 50 -64 l49 -59 42 9 c75 17 86 11 121 -65 l32
-69 -47 -41 c-52 -45 -55 -58 -36 -145 10 -50 11 -51 70 -72 l59 -22 -7 -76
c-3 -42 -9 -79 -12 -84 -4 -4 -34 -12 -67 -18 l-60 -10 -26 -73 -26 -72 39
-44 c21 -25 39 -48 39 -52 0 -5 -21 -37 -46 -72 l-47 -65 -50 20 c-28 11 -55
23 -59 25 -14 9 -127 -89 -127 -111 0 -11 4 -40 10 -64 11 -51 14 -48 -80 -88
l-64 -27 -42 49 -42 48 -74 -12 c-41 -7 -77 -15 -80 -19 -4 -4 -14 -31 -24
-60 l-17 -53 -76 7 c-43 4 -83 11 -89 17 -7 5 -13 24 -13 43 0 63 -12 77 -88
103 l-71 25 -48 -41 -48 -40 -67 46 c-37 25 -68 52 -68 59 0 10 4 9 16 -2 21
-22 39 -20 56 6 13 19 18 21 31 10 23 -20 57 -6 57 23 0 18 6 24 27 27 14 2
29 10 31 18 5 13 3 13 -12 1 -9 -8 -19 -11 -23 -8 -10 10 -33 -13 -33 -33 0
-23 -20 -30 -42 -16 -13 8 -22 6 -36 -7 -24 -22 -52 -22 -52 -1 0 13 -7 15
-36 11 -27 -5 -36 -2 -40 11 -11 34 -22 47 -40 47 -12 0 -19 7 -19 20 0 12 6
20 16 19 11 -1 14 7 12 30 -4 30 -3 29 11 -7 19 -50 41 -74 83 -88 38 -12 123
-4 123 12 0 6 6 7 13 3 6 -4 9 -3 4 1 -4 5 3 19 15 33 18 18 23 34 22 74 -1
43 -6 55 -36 85 -28 28 -46 36 -89 42 -45 6 -50 8 -30 15 17 6 20 10 11 16 -7
4 -9 13 -6 19 10 16 46 14 46 -3 0 -18 30 -30 43 -17 5 5 16 7 23 4 10 -4 12
0 8 11 -3 9 -1 16 5 16 6 0 9 -16 8 -37 -2 -32 2 -39 26 -51 28 -13 34 -26 18
-36 -10 -6 -3 -46 8 -46 3 0 7 16 8 37 2 49 21 91 44 98 10 4 19 13 19 22 0
10 6 14 20 10 23 -6 43 14 34 37 -4 10 -1 16 9 16 21 0 33 40 16 50 -10 7 -10
12 -1 23 15 18 5 47 -15 47 -10 0 -14 7 -10 20 6 23 -16 45 -38 36 -9 -3 -15
0 -15 9 0 8 -8 16 -17 16 -10 1 -25 3 -33 3 -8 1 -38 25 -67 53 -46 46 -50 53
-32 58 15 5 18 12 13 33 -9 38 -13 42 -37 43 -12 0 17 9 64 19 47 10 95 23
106 28 35 19 61 3 87 -52 13 -29 57 -85 100 -130 75 -78 76 -80 75 -130 0 -48
-3 -53 -42 -84 -135 -108 -267 -247 -267 -282 0 -7 -10 -20 -22 -30 -31 -25
-17 -46 51 -84 43 -23 51 -25 42 -10 -14 28 -24 58 -22 68 1 4 -4 15 -11 24
-12 13 -10 14 10 3 24 -13 29 -3 10 18 -11 11 -9 11 9 2 32 -16 38 -13 18 9
-20 22 -14 25 18 9 18 -9 16 -5 -8 21 l-30 32 35 -17 35 -18 -25 28 -25 27 40
-16 40 -17 -30 32 -30 31 32 -16 c45 -22 50 -20 22 10 l-24 25 28 -10 c40 -15
43 -14 21 11 -14 15 -15 20 -4 16 52 -20 55 -20 30 1 -28 23 -24 26 14 11 30
-11 34 -3 9 17 -19 15 -16 14 47 -4 10 -3 8 1 -4 11 -23 18 -18 20 18 6 35
-13 33 -6 -6 20 -28 18 -29 20 -8 14 22 -6 23 -5 11 10 -9 11 -10 16 -2 16 7
0 9 5 6 10 -3 6 -3 10 2 10 15 0 33 54 33 97 0 54 -18 91 -59 121 -17 13 -29
27 -26 32 3 5 -3 14 -14 19 -11 6 -18 19 -17 28 2 10 -11 36 -27 57 -29 37
-30 38 -6 26 18 -10 15 -3 -15 28 -32 34 -42 39 -58 31 -10 -5 -22 -8 -26 -5
-4 2 -45 -7 -91 -20 -82 -24 -165 -31 -187 -16 -21 14 -63 98 -78 157 -9 32
-16 100 -16 150 0 49 -4 96 -8 103 -13 20 -37 5 -50 -32 -14 -39 -57 -62 -97
-52 -34 9 -31 19 10 39 22 10 35 24 35 36 0 27 -25 33 -65 14 -19 -9 -38 -14
-41 -10 -11 10 31 72 52 76 15 2 13 -2 -9 -19 -32 -25 -30 -38 3 -20 34 18 70
-2 70 -39 0 -21 -6 -32 -20 -36 -23 -7 -27 -25 -6 -25 24 0 66 41 66 65 0 16
9 26 30 35 17 7 30 20 30 29 0 14 2 14 10 1 9 -13 12 -13 24 2 9 12 16 14 23
7 8 -8 15 -3 24 17 8 15 23 32 34 38 11 6 22 12 24 13 2 1 -3 13 -12 27 -15
22 -20 23 -59 15 -52 -12 -101 -55 -78 -69 17 -11 16 -12 -38 -39 -33 -17 -46
-19 -60 -11 -15 10 -14 11 5 7 30 -6 59 16 72 56 15 45 76 80 134 77 61 -4 67
-2 67 19 0 23 54 71 80 71 23 0 50 -10 50 -19 0 -3 -16 -15 -35 -25 -36 -20
-47 -52 -21 -62 8 -3 28 2 46 11 43 22 52 16 34 -22 -18 -37 -53 -52 -106 -45
-36 4 -38 3 -38 -25 0 -15 -11 -45 -25 -65 -33 -49 -32 -89 6 -154 31 -55 38
-61 54 -45 6 5 27 14 47 20 20 7 42 19 48 27 7 7 22 14 34 14 27 0 91 66 100
102 4 16 1 36 -6 48 -11 17 -8 24 20 53 38 39 40 54 10 59 -13 2 -27 13 -33
25 -5 12 -22 25 -37 28 -21 5 -28 12 -28 31 0 29 31 39 99 30 44 -6 48 -4 70
25 41 56 93 65 203 38z m-6112 -25 c0 -45 -24 -42 -28 4 -2 24 1 32 12 32 12
0 16 -10 16 -36z m85 -1 c46 -28 51 -38 36 -61 -6 -11 -16 -10 -49 4 -38 14
-42 20 -42 50 0 19 2 34 5 34 2 0 25 -12 50 -27z m-249 1 c20 -5 24 -12 24
-45 0 -28 -4 -39 -15 -39 -8 0 -15 -7 -15 -15 0 -9 -9 -15 -25 -15 -24 0 -25
2 -25 66 0 56 2 65 16 60 9 -3 27 -9 40 -12z m93 -35 c46 -16 43 -49 -4 -49
-32 0 -35 2 -35 30 0 17 2 30 4 30 1 0 17 -5 35 -11z m89 -38 c8 -4 12 -20 10
-34 l-3 -25 -24 19 c-33 27 -18 63 17 40z m-78 -130 c0 -97 -2 -101 -72 -101
-24 0 -28 4 -28 29 0 23 5 30 23 33 31 4 35 52 8 89 -12 16 -21 31 -21 34 0 3
20 5 45 5 l45 0 0 -89z m115 -21 c-4 -19 -8 -37 -10 -38 -2 -2 -20 1 -39 8
-36 12 -36 12 -36 71 l0 59 46 -33 c43 -30 45 -34 39 -67z m-275 60 c0 -12 -9
-24 -22 -29 -29 -11 -32 -8 -24 24 8 31 46 36 46 5z m69 -6 c28 -35 18 -56
-20 -42 -20 7 -29 17 -29 32 0 43 20 47 49 10z m5929 -66 c-1 -14 3 -33 10
-41 20 -24 4 -44 -54 -67 -30 -12 -79 -40 -109 -61 -31 -22 -58 -39 -60 -39
-3 0 -14 18 -25 39 l-20 40 28 21 c25 20 27 26 23 82 l-3 61 32 -6 c39 -8 94
14 110 43 12 22 12 22 40 -11 18 -21 29 -44 28 -61z m-4423 -3 c33 -16 86 -55
117 -86 67 -67 85 -115 69 -187 -14 -63 -47 -147 -57 -147 -22 1 -363 181
-400 211 -23 18 -47 46 -53 63 -11 26 -10 34 15 77 16 27 46 59 73 76 41 26
53 29 111 26 48 -2 82 -12 125 -33z m-1537 -107 c-3 -96 -6 -113 -20 -116 -14
-3 -16 7 -12 80 6 110 13 148 25 148 6 0 9 -43 7 -112z m931 55 c25 -27 63
-57 83 -67 24 -13 38 -29 42 -46 3 -15 16 -41 30 -58 15 -16 26 -32 26 -36 0
-3 -13 -12 -30 -21 -16 -9 -30 -22 -30 -30 0 -24 -23 -7 -57 42 -30 43 -37 47
-77 49 -52 3 -96 24 -146 67 l-34 30 29 -7 c66 -16 85 -18 85 -9 0 5 -25 18
-55 28 -30 11 -55 24 -55 31 0 6 17 23 38 37 74 50 94 48 151 -10z m-715 -4
c16 -14 0 -21 -33 -14 -18 4 -31 13 -31 22 0 12 7 14 28 8 15 -3 31 -11 36
-16z m397 -19 c107 0 109 0 109 -23 0 -20 -4 -23 -35 -19 -19 2 -35 8 -35 13
0 5 -40 9 -89 9 -83 0 -111 7 -94 24 4 4 13 4 21 1 7 -3 63 -5 123 -5z m-496
-70 c22 0 107 -30 134 -47 38 -24 10 -38 -30 -14 -19 11 -55 25 -81 31 -47 12
-98 49 -98 70 0 7 14 0 31 -14 17 -14 37 -26 44 -26z m28 -44 c62 -18 97 -41
97 -63 0 -14 -2 -14 -19 1 -10 9 -54 32 -97 50 -43 18 -84 43 -93 55 -14 22
-14 22 23 -3 20 -13 61 -32 89 -40z m1010 58 c20 -4 37 -12 37 -19 0 -7 18
-31 40 -54 29 -29 91 -66 222 -132 228 -114 230 -116 217 -140 -5 -10 -16 -19
-23 -19 -8 0 -55 28 -106 63 -119 80 -168 105 -255 129 -129 36 -205 93 -205
156 0 24 9 26 73 16z m-754 -46 c37 -79 46 -130 32 -190 -7 -29 -11 -89 -9
-132 l3 -80 -30 -7 c-16 -3 -37 -9 -45 -13 -13 -5 -20 12 -37 86 -12 51 -24
118 -27 148 -2 30 -7 63 -11 73 -12 29 15 19 27 -10 l12 -28 4 30 c3 21 -2 34
-17 46 -12 10 -21 20 -21 23 0 13 45 -16 67 -42 l23 -27 0 24 c0 14 -14 37
-36 57 -19 19 -30 34 -23 34 7 0 28 -14 46 -32 41 -40 50 -32 24 21 -23 44
-26 61 -12 61 5 0 18 -19 30 -42z m5133 -55 c3 -82 1 -100 -13 -114 -16 -16
-18 -16 -41 9 -66 75 -65 63 -13 136 26 36 50 66 55 66 4 0 10 -44 12 -97z
m-5552 -32 c0 -20 -22 -67 -41 -87 -17 -18 -19 -33 -17 -89 l3 -68 48 -14 c66
-19 62 -40 -9 -45 -31 -1 -58 -1 -60 1 -9 9 -3 238 7 274 9 32 14 37 39 37 17
0 30 -4 30 -9z m158 3 c46 -6 52 -9 52 -30 0 -23 -3 -24 -72 -24 -40 0 -83 3
-95 6 -22 6 -31 33 -16 47 8 9 62 9 131 1z m1145 -74 c83 -27 96 -34 86 -47
-11 -12 -9 -13 13 -8 20 5 29 1 42 -16 9 -13 16 -30 15 -39 0 -10 -4 -7 -11 7
-11 23 -37 38 -47 27 -3 -3 2 -10 12 -15 21 -12 22 -32 1 -50 -13 -11 -14 -9
-9 14 4 16 3 27 -3 27 -12 0 -22 -24 -22 -52 0 -18 4 -20 30 -14 20 3 29 2 25
-4 -10 -16 -65 -41 -75 -35 -13 8 -13 62 0 70 6 3 10 12 10 18 -1 22 -40 -35
-40 -58 0 -30 28 -58 49 -49 45 18 51 17 51 -10 0 -32 40 -76 70 -76 11 0 20
-4 20 -9 0 -13 -38 -21 -108 -21 -43 0 -75 -6 -102 -20 -52 -26 -55 -26 -71
13 -7 17 -21 44 -31 59 -15 22 -16 27 -4 22 8 -3 23 -1 33 5 16 9 15 10 -7 11
-14 0 -49 11 -77 25 -58 26 -58 27 -47 123 6 46 9 52 30 52 20 0 24 5 24 31 0
17 -4 28 -10 24 -5 -3 -10 -13 -10 -21 0 -20 -13 -17 -29 7 -12 20 -10 24 15
44 25 20 32 21 54 10 14 -7 69 -27 123 -45z m-1095 -32 c-5 -32 -28 -35 -28
-4 0 17 5 26 16 26 10 0 14 -7 12 -22z m5259 4 c10 -16 6 -20 -28 -29 -35 -9
-39 -8 -39 8 0 17 24 38 45 39 6 0 15 -8 22 -18z m123 -44 c13 -29 25 -56 28
-61 2 -4 -12 2 -30 13 -93 54 -209 24 -267 -70 -11 -19 -21 -43 -21 -52 0 -10
-4 -18 -9 -18 -6 0 -7 10 -5 23 3 12 6 28 6 35 1 6 5 12 10 12 5 0 6 5 3 10
-3 6 -1 10 4 10 6 0 11 6 11 13 0 16 54 52 105 71 52 19 103 45 110 57 14 21
32 6 55 -43z m-5069 -32 c21 -47 24 -108 7 -156 -10 -29 -12 -31 -18 -14 -4
10 -3 34 2 53 10 35 -6 126 -23 137 -5 3 -9 12 -9 20 0 25 21 5 41 -40z m4829
26 c12 -6 7 -15 -24 -42 -22 -19 -36 -29 -32 -23 4 7 3 21 -3 30 -15 28 23 51
59 35z m-5344 -10 c13 -8 7 -72 -6 -72 -25 0 -40 15 -40 39 0 39 18 52 46 33z
m214 -21 c0 -25 -3 -28 -25 -23 -39 7 -33 52 7 52 13 0 18 -8 18 -29z m65 -40
c-2 -2 -11 -1 -20 2 -18 8 -20 38 -3 55 10 10 14 6 20 -20 3 -18 5 -35 3 -37z
m212 -23 c4 -36 2 -50 -4 -43 -6 6 -13 37 -17 70 -4 44 -3 55 5 43 5 -10 13
-42 16 -70z m1053 45 l49 -36 -28 -41 c-15 -23 -30 -49 -34 -58 -8 -22 -26
-23 -55 -2 -26 18 -28 38 -7 87 8 20 15 48 15 62 0 14 2 25 5 25 3 0 28 -16
55 -37z m4028 3 c1 -2 -7 -38 -18 -81 -12 -49 -20 -111 -20 -165 l0 -87 -30
-6 c-41 -9 -58 0 -62 30 -2 21 -13 29 -63 47 l-60 21 4 65 c5 98 10 106 75
114 53 7 58 10 76 46 19 38 20 38 57 28 21 -5 39 -11 41 -12z m61 -60 c26 -42
26 -56 2 -56 -30 0 -51 11 -51 25 0 17 18 65 24 65 2 0 14 -15 25 -34z m-5363
7 c28 -11 1 -23 -52 -23 -48 0 -54 2 -54 21 0 20 4 21 46 14 26 -3 53 -9 60
-12z m4999 -13 c-4 -8 -9 -27 -12 -42 -5 -26 -5 -27 -26 -8 -17 17 -19 24 -9
44 12 28 57 34 47 6z m433 -1 c2 -5 15 -9 28 -9 20 0 24 -5 24 -29 0 -16 -6
-31 -15 -35 -19 -7 -19 -55 0 -70 23 -17 8 -56 -21 -56 -28 0 -48 -32 -39 -61
4 -13 0 -28 -11 -40 -16 -18 -19 -18 -35 -3 -17 15 -20 15 -44 0 -14 -9 -25
-25 -25 -36 0 -29 -41 -38 -58 -11 -17 25 -48 27 -73 5 -24 -21 -59 -10 -59
19 0 29 -34 51 -59 38 -26 -15 -60 22 -44 48 7 11 8 23 1 34 -5 10 -6 22 -2
28 3 6 6 32 6 58 l0 46 19 -60 c20 -64 56 -108 119 -143 40 -22 111 -23 148
-3 12 6 28 9 34 5 8 -5 9 -2 5 10 -5 13 -3 17 5 13 15 -5 40 17 31 27 -4 3 -1
6 6 6 7 0 9 5 6 10 -3 6 -1 10 5 10 6 0 8 5 5 10 -3 6 -2 10 4 10 10 0 25 35
25 60 0 40 -15 99 -29 110 -8 7 -15 17 -15 22 0 12 54 0 58 -13z m-4098 -70
c0 -27 -2 -28 -20 -17 -23 14 -25 29 -8 46 16 16 28 5 28 -29z m4455 23 c-3
-3 -11 0 -18 7 -9 10 -8 11 6 5 10 -3 15 -9 12 -12z m729 -13 c8 -40 6 -207
-3 -238 l-7 -24 -16 25 c-13 20 -27 26 -68 30 -62 6 -76 22 -52 60 33 51 127
177 133 177 4 1 9 -13 13 -30z m-1188 -7 c-15 -3 -16 -6 -5 -13 12 -7 12 -9
-1 -10 -10 0 -8 -3 5 -9 18 -8 17 -9 -7 -9 -30 -1 -31 1 -22 35 4 17 11 20 27
16 20 -6 20 -7 3 -10z m-5122 -38 c4 -10 0 -18 -13 -21 -23 -6 -33 -26 -24
-49 5 -15 7 -15 15 0 5 9 14 16 21 16 15 0 127 -168 127 -190 0 -9 -15 -21
-35 -29 -37 -13 -49 -37 -15 -28 18 5 17 0 -10 -36 -39 -53 -30 -60 18 -15 46
44 67 55 153 79 83 23 135 25 74 3 -22 -8 -49 -24 -60 -36 l-20 -21 20 8 c11
4 48 15 82 25 l62 17 -26 -44 c-14 -24 -23 -46 -20 -49 2 -3 30 25 62 62 107
127 186 163 288 132 43 -13 107 -69 107 -93 0 -8 5 -15 10 -15 16 0 12 22 -11
65 l-21 39 23 -16 c35 -22 77 -96 87 -149 l9 -46 -35 23 c-22 15 -48 24 -71
23 l-36 -1 35 -15 c81 -34 130 -123 130 -233 0 -89 -1 -90 -84 -90 l-71 0 34
18 c19 9 37 23 39 30 3 11 -3 10 -26 -2 -18 -9 -54 -16 -84 -15 l-53 0 40 18
c38 17 113 96 102 107 -3 3 -23 -11 -45 -30 -71 -65 -147 -81 -242 -52 l-45
14 69 7 c46 5 64 10 54 16 -9 5 -77 4 -154 -2 -210 -16 -287 -2 -365 69 -50
45 -65 45 -29 -1 33 -41 27 -53 -18 -40 -27 7 -44 41 -103 211 -21 62 -45 123
-54 135 -19 28 -21 89 -1 81 7 -3 16 2 19 10 4 9 16 16 27 16 11 0 20 4 20 9
0 15 -41 24 -53 12 -18 -18 -33 -13 -45 14 -13 28 -10 30 53 57 51 22 81 22
89 2z m1182 -89 c15 -23 33 -157 34 -245 l0 -45 -98 -38 c-64 -25 -110 -37
-132 -35 -34 3 -35 3 -46 73 -20 118 -43 161 -119 218 l-40 30 45 -7 c25 -4
74 -9 110 -11 l65 -5 -80 27 c-92 30 -85 41 25 42 82 1 136 25 133 59 -3 22
-2 22 42 -8 25 -17 52 -42 61 -55z m3594 46 c8 -29 7 -31 -16 -31 -14 0 -24 6
-24 14 0 8 -3 21 -6 29 -3 10 1 17 13 19 23 5 22 6 33 -31z m363 18 c21 -5 37
-16 37 -24 0 -17 -67 -95 -81 -95 -5 0 -9 29 -9 65 0 36 3 65 8 65 4 0 24 -5
45 -11z m198 -82 c-13 -13 -26 -3 -16 12 3 6 11 8 17 5 6 -4 6 -10 -1 -17z
m83 -3 c3 -8 14 -14 23 -12 12 2 19 -4 21 -20 2 -12 12 -27 23 -33 17 -9 18
-13 8 -26 -10 -12 -10 -19 0 -35 11 -17 10 -22 -9 -35 -11 -8 -19 -22 -18 -31
2 -11 -5 -18 -20 -20 -13 -2 -26 -10 -29 -18 -4 -11 -14 -13 -36 -8 -18 4 -32
2 -37 -6 -5 -8 -12 -6 -25 7 -10 10 -26 18 -34 18 -9 0 -17 9 -19 20 -2 11
-13 28 -25 37 -12 9 -18 20 -13 25 5 4 11 2 13 -4 9 -24 20 -13 17 15 l-4 27
10 -29 c22 -67 82 -104 133 -82 94 39 85 170 -13 191 -30 7 -31 8 -15 25 18
20 40 17 49 -6z m-162 -6 c-7 -7 -12 -20 -12 -29 0 -25 -28 -32 -35 -8 -8 25
11 49 38 49 16 0 18 -3 9 -12z m28 -23 c-7 -8 -16 -12 -21 -9 -13 8 -1 24 18
24 13 0 13 -3 3 -15z m155 -47 c19 -35 19 -38 2 -72 -17 -36 -46 -53 -32 -18
17 37 17 79 1 95 -9 8 -16 21 -16 27 0 22 25 4 45 -32z m-125 17 c0 -2 -5 -16
-10 -31 -8 -20 -7 -32 5 -50 17 -27 19 -44 5 -44 -6 0 -18 15 -27 34 -13 27
-14 40 -4 67 10 31 9 32 -4 15 -8 -11 -15 -15 -15 -10 0 17 22 33 36 27 8 -3
14 -7 14 -8z m-60 -12 c0 -5 -9 -23 -20 -40 -21 -35 -18 -63 7 -63 10 0 13 -6
9 -16 -4 -9 -1 -23 5 -31 9 -11 9 -17 0 -26 -10 -9 -16 -7 -28 11 -17 24 -58
30 -66 10 -8 -19 -24 7 -42 66 -18 58 -9 76 28 59 20 -9 28 -8 46 10 18 19 21
19 21 4 0 -9 5 -17 11 -17 5 0 7 5 4 10 -3 6 -3 15 0 20 7 12 25 13 25 3z
m124 -19 c9 -3 16 -12 16 -19 0 -19 -25 -36 -44 -29 -19 7 -22 40 -3 47 6 3
13 6 14 6 1 1 8 -2 17 -5z m-359 -55 c5 -15 14 -19 38 -17 28 3 32 -1 41 -31
8 -27 7 -36 -6 -45 -9 -6 -18 -20 -20 -31 -2 -13 -11 -19 -24 -18 -27 3 -50
-33 -33 -53 15 -19 3 -32 -36 -39 -29 -6 -31 -4 -64 70 -18 41 -32 77 -30 78
52 39 99 83 99 93 0 22 28 16 35 -7z m-5150 -84 c-20 -88 -14 -148 18 -196 31
-46 61 -65 155 -98 45 -17 95 -39 111 -50 30 -22 56 -71 49 -93 -3 -7 -10 4
-17 24 -13 40 -25 46 -167 87 -131 38 -184 97 -184 206 0 53 20 163 36 205 15
37 14 -15 -1 -85z m6388 46 c16 -1 15 -6 -7 -48 -14 -27 -34 -61 -44 -76 l-20
-29 -26 57 c-14 32 -26 70 -26 84 0 27 0 27 53 20 28 -4 60 -8 70 -8z m-6358
-91 c-7 -75 -5 -83 18 -118 15 -24 43 -46 77 -62 196 -92 214 -103 238 -150
25 -51 28 -80 8 -80 -8 0 -17 15 -20 36 -9 48 -70 104 -137 128 -166 58 -209
100 -209 202 0 56 15 124 27 124 3 0 2 -36 -2 -80z m5228 23 c4 -3 -2 -13 -14
-21 -23 -16 -34 -10 -26 13 7 15 28 20 40 8z m-27 -63 c-20 -18 -36 -38 -36
-45 0 -8 -4 -16 -9 -19 -5 -4 -7 3 -4 15 6 23 72 93 80 85 3 -2 -11 -19 -31
-36z m135 9 c20 -10 20 -11 3 -24 -16 -11 -20 -10 -31 4 -24 31 -10 41 28 20z
m-4011 -38 c0 -37 -2 -40 -47 -59 -70 -29 -152 -52 -190 -52 -31 0 -33 2 -33
34 0 33 1 34 58 45 31 7 89 25 127 41 39 16 73 29 78 29 4 1 7 -16 7 -38z
m3828 14 c-12 -27 -28 -24 -28 6 0 12 7 19 20 19 17 0 18 -3 8 -25z m122 -2
c11 -16 44 -52 72 -81 l52 -53 -30 -29 c-16 -16 -45 -32 -68 -36 -38 -7 -38
-7 -32 22 5 25 -1 39 -44 92 l-51 62 25 25 c32 32 49 32 76 -2z m80 -30 c0 4
6 2 14 -5 8 -7 12 -16 10 -20 -6 -9 -44 23 -44 37 0 5 5 3 10 -5 5 -8 10 -11
10 -7z m-230 -48 c0 -18 -4 -23 -15 -19 -8 4 -15 15 -15 25 0 10 7 19 15 19 9
0 15 -9 15 -25z m280 3 c0 -16 -3 -19 -11 -11 -6 6 -8 16 -5 22 11 17 16 13
16 -11z m-4084 -39 c-3 -17 -6 -53 -6 -79 l0 -47 -101 -6 c-55 -3 -114 -4
-130 0 -28 5 -30 8 -27 46 l3 41 60 12 c67 13 146 38 173 53 28 17 35 13 28
-20z m4154 -15 c0 -8 -4 -12 -10 -9 -5 3 -10 10 -10 16 0 5 5 9 10 9 6 0 10
-7 10 -16z m-4840 -93 c16 -30 12 -41 -14 -41 -19 0 -25 6 -28 30 -4 24 -1 30
13 30 10 0 23 -9 29 -19z m77 -2 c15 -6 46 -14 68 -19 36 -7 33 -8 -31 -9 -64
-1 -72 1 -77 19 -6 23 0 24 40 9z"/>
<path d="M5122 6460 l3 -1280 1275 0 1275 0 3 1280 2 1280 -1280 0 -1280 0 2
-1280z m960 1143 c3 -16 46 -190 97 -388 51 -198 108 -421 127 -495 19 -74 37
-143 40 -152 4 -15 -1 -18 -35 -18 -38 0 -41 2 -50 38 -5 20 -26 102 -46 182
-21 80 -47 162 -58 183 -46 82 -143 102 -230 47 -125 -79 -169 -251 -102 -397
l24 -53 -49 0 c-47 0 -49 1 -61 38 -7 20 -13 71 -13 112 1 92 20 142 114 300
37 63 71 125 75 138 11 38 -13 25 -41 -23 -14 -25 -36 -52 -47 -60 -46 -32
-87 -10 -87 47 0 31 52 138 130 267 72 120 121 221 114 233 -3 4 -21 8 -40 8
-19 0 -34 5 -34 10 0 6 35 10 84 10 84 0 84 0 88 -27z m1007 0 c22 -48 25
-133 6 -208 -28 -114 -59 -166 -182 -313 -59 -70 -69 -113 -32 -133 17 -9 25
-7 46 13 14 12 32 35 41 50 20 35 57 51 82 38 29 -15 33 -50 16 -116 -27 -98
-31 -211 -12 -278 10 -32 24 -69 33 -82 l15 -24 -54 0 -55 0 -17 58 c-10 31
-19 61 -20 66 -1 5 -11 -7 -23 -26 -27 -46 -83 -88 -130 -99 -121 -27 -227 80
-248 251 -14 120 50 299 144 402 60 65 120 98 180 98 42 0 70 -19 97 -66 10
-16 14 -9 33 54 30 98 30 223 2 288 -12 26 -21 48 -21 50 0 2 20 4 43 4 38 0
45 -4 56 -27z m-575 -149 c13 -35 -52 -95 -88 -81 -23 9 -20 47 6 74 25 27 73
31 82 7z m-26 -531 l2 -373 -40 0 -40 0 0 368 c0 203 3 372 7 376 4 4 21 6 38
4 l30 -3 3 -372z m-469 -529 c73 -21 121 -69 121 -118 0 -40 -24 -51 -35 -15
-12 37 -69 92 -120 115 -67 32 -176 33 -238 4 -128 -61 -206 -213 -194 -380
10 -138 71 -246 175 -308 41 -24 57 -27 132 -27 95 0 141 18 195 75 l30 31 3
145 3 144 30 0 29 0 0 -164 0 -165 -29 -21 c-100 -70 -294 -85 -416 -31 -104
47 -186 162 -203 286 -29 210 67 374 256 436 67 23 174 20 261 -7z m1271 -354
l0 -380 -131 0 c-153 0 -196 10 -245 58 -59 57 -79 112 -79 217 0 93 14 134
63 191 62 73 216 82 292 17 16 -13 34 -22 40 -18 6 4 10 63 10 151 l0 144 25
0 25 0 0 -380z m-530 265 c21 -7 21 -8 -9 -26 -17 -10 -31 -26 -31 -34 0 -8
-4 -15 -10 -15 -5 0 -10 5 -10 10 0 6 -12 22 -26 35 -23 21 -24 26 -10 31 9 4
24 20 33 37 l15 31 13 -31 c7 -17 23 -34 35 -38z m-170 -128 c24 -8 35 -18 35
-32 0 -16 -6 -20 -30 -19 -16 1 -44 7 -61 14 -55 23 -140 -9 -186 -71 -30 -40
-38 -92 -38 -256 l0 -153 -25 0 -25 0 0 255 0 255 25 0 c23 0 25 -3 25 -50 0
-58 11 -62 46 -21 62 74 155 105 234 78z m150 -262 l0 -255 -30 0 -30 0 0 255
0 255 30 0 30 0 0 -255z"/>
<path d="M5987 7540 c-9 -19 -39 -78 -67 -130 -59 -107 -110 -228 -110 -259 0
-37 28 -36 70 3 71 64 78 41 25 -84 -19 -44 -29 -78 -22 -73 6 4 31 21 54 39
54 41 124 68 163 62 16 -3 30 -3 30 -1 0 13 -102 405 -114 438 l-14 40 -15
-35z"/>
<path d="M6814 7274 c-95 -46 -174 -232 -174 -404 0 -113 21 -183 69 -231 95
-96 210 -40 253 124 10 39 37 109 59 154 47 95 47 118 4 118 -26 0 -35 -8 -73
-73 -41 -68 -46 -73 -75 -70 -67 6 -62 98 10 180 59 69 74 104 63 151 -4 21
-14 44 -20 52 -16 19 -76 19 -116 -1z"/>
<path d="M6989 6147 c-65 -44 -99 -117 -99 -217 0 -166 88 -260 244 -260 103
0 96 -16 96 210 0 185 -1 199 -21 224 -51 64 -157 85 -220 43z"/>
<path d="M4090 10140 c-7 -4 -9 -13 -6 -19 10 -16 46 -14 46 3 0 17 -23 27
-40 16z"/>
<path d="M4037 10083 c-15 -14 -6 -43 18 -59 18 -11 37 -15 61 -11 44 7 46 9
38 31 -12 32 -97 60 -117 39z"/>
<path d="M4010 10021 c0 -25 6 -27 13 -6 4 8 2 17 -3 20 -6 4 -10 -3 -10 -14z"/>
<path d="M4008 9987 c-34 -28 -37 -77 -8 -124 17 -28 25 -33 58 -33 42 0 58
13 86 67 20 39 20 43 2 43 -8 0 -17 14 -21 30 -5 22 -12 30 -28 30 -12 0 -31
2 -42 5 -12 3 -31 -4 -47 -18z m36 -82 c-4 -10 0 -15 15 -15 12 0 21 -4 21 -9
0 -4 -11 -6 -25 -3 -24 4 -33 21 -18 35 10 11 13 8 7 -8z"/>
<path d="M4134 9995 c-8 -21 6 -41 17 -24 12 19 11 39 -1 39 -6 0 -13 -7 -16
-15z"/>
<path d="M3878 9973 c7 -3 16 -2 19 1 4 3 -2 6 -13 5 -11 0 -14 -3 -6 -6z"/>
<path d="M3807 9942 c-10 -10 -17 -27 -17 -36 0 -10 -16 -40 -35 -66 l-36 -48
23 -16 c12 -9 27 -16 33 -16 10 0 40 75 54 135 4 20 9 26 14 17 5 -6 13 -12
19 -12 6 0 3 9 -7 20 -19 21 -7 28 13 8 7 -7 12 -8 12 -4 0 11 -32 35 -46 36
-6 0 -18 -8 -27 -18z"/>
<path d="M3990 9815 c0 -28 8 -31 34 -12 17 12 16 14 -8 25 -24 11 -26 10 -26
-13z"/>
<path d="M3956 9815 c-3 -8 -1 -15 4 -15 6 0 10 7 10 15 0 8 -2 15 -4 15 -2 0
-6 -7 -10 -15z"/>
<path d="M4048 9803 c-21 -8 -38 -19 -38 -24 0 -4 16 -1 35 7 19 8 40 13 46
12 6 -2 14 3 16 10 6 16 -13 15 -59 -5z"/>
<path d="M3852 9780 c-45 -32 -53 -58 -26 -84 8 -9 17 -16 19 -16 3 0 65 103
73 123 8 17 -28 5 -66 -23z"/>
<path d="M4148 9803 c-10 -2 -18 -11 -18 -19 0 -8 -9 -32 -20 -54 -11 -22 -20
-43 -20 -48 0 -8 90 -62 103 -62 10 0 27 73 27 113 0 66 -19 84 -72 70z"/>
<path d="M3940 9780 c0 -5 7 -10 16 -10 8 0 12 5 9 10 -3 6 -10 10 -16 10 -5
0 -9 -4 -9 -10z"/>
<path d="M4045 9771 c-6 -11 9 -23 19 -14 9 9 7 23 -3 23 -6 0 -12 -4 -16 -9z"/>
<path d="M3690 9744 c-8 -8 -14 -34 -14 -57 -1 -41 -1 -42 37 -45 29 -3 37 0
37 13 0 10 -5 13 -12 9 -6 -4 -2 9 10 28 l23 36 -32 16 c-39 19 -34 19 -49 0z"/>
<path d="M3887 9687 c-36 -74 -43 -107 -24 -107 27 0 47 12 48 29 0 10 2 11 6
4 2 -7 14 -13 25 -13 18 0 20 4 15 33 l-6 32 15 -29 16 -28 38 39 c20 22 42
49 48 60 11 19 8 21 -50 27 -104 11 -102 11 -131 -47z"/>
<path d="M3786 9684 c-10 -26 -7 -32 14 -27 23 6 25 16 6 32 -11 9 -15 8 -20
-5z"/>
<path d="M4030 9619 c-25 -30 -90 -54 -285 -106 -58 -15 -93 -33 -66 -33 7 0
9 -5 5 -12 -5 -8 0 -9 17 -5 23 6 23 5 5 -8 -11 -8 -23 -15 -28 -15 -4 0 -8
-4 -8 -10 0 -17 43 -11 84 11 21 11 77 27 125 35 141 23 171 34 183 63 9 21
12 23 15 8 4 -15 10 -13 49 15 24 17 44 32 44 34 0 6 -90 54 -102 54 -7 0 -24
-14 -38 -31z"/>
<path d="M3794 9628 c-12 -5 -26 -26 -32 -45 l-11 -35 31 6 c38 8 35 3 43 49
8 39 3 42 -31 25z"/>
<path d="M4175 9561 c-3 -5 -1 -12 5 -16 5 -3 10 1 10 9 0 18 -6 21 -15 7z"/>
<path d="M4090 9507 c-38 -21 -83 -36 -145 -47 -77 -14 -90 -19 -93 -37 -2
-16 3 -22 27 -25 17 -2 32 0 34 5 2 6 12 5 25 -2 24 -13 27 -37 13 -106 -8
-39 -9 -38 -10 21 l-1 61 -46 7 c-25 3 -50 4 -54 1 -4 -3 -11 -21 -14 -40 -6
-30 -36 -269 -36 -286 0 -4 26 -15 58 -25 45 -14 84 -18 182 -16 69 1 138 4
153 8 l28 6 -7 216 c-7 215 -13 252 -46 280 -11 8 -26 4 -68 -21z m72 -140 c2
-7 1 -30 -3 -52 l-6 -40 -2 43 -1 42 -62 2 -63 2 53 3 c28 2 52 8 52 13 0 13
28 1 32 -13z m-119 -161 c82 -11 91 -15 26 -12 -37 2 -71 6 -76 9 -5 3 -7 23
-4 44 l6 38 3 -37 c3 -35 5 -37 45 -42z m-108 3 c6 -7 -6 -8 -35 -3 -65 10
-87 27 -25 19 28 -4 55 -11 60 -16z"/>
<path d="M3823 8997 c-7 -11 4 -21 42 -42 l30 -17 -27 6 c-27 6 -38 -6 -18
-19 6 -3 10 -11 10 -18 0 -6 -6 -2 -14 9 -19 26 -28 14 -34 -46 l-5 -51 57 3
c31 2 55 7 54 13 -2 6 -14 9 -28 8 -21 -3 -19 0 13 17 44 24 48 33 10 24 -27
-6 -26 -5 7 18 25 17 36 32 38 54 3 30 2 30 -63 40 -38 5 -69 6 -72 1z"/>
<path d="M4080 8971 c5 -11 10 -40 10 -65 0 -59 8 -76 35 -76 36 0 85 12 85
21 0 4 -15 22 -32 40 -18 18 -25 26 -15 19 28 -21 33 -2 6 26 -24 26 -24 26
-1 15 20 -11 22 -9 22 14 0 24 -2 25 -60 25 -57 0 -60 -1 -50 -19z"/>
<path d="M4128 8803 c-49 -7 -30 -23 27 -23 42 0 55 3 55 15 0 15 -21 17 -82
8z"/>
<path d="M3816 8671 c6 -110 5 -121 -14 -153 -12 -19 -19 -38 -15 -41 10 -10
56 -8 73 3 11 8 7 9 -15 4 l-30 -6 33 21 c25 16 32 28 33 53 1 31 1 32 9 8 10
-31 11 -21 13 118 l2 112 -48 0 -48 0 7 -119z"/>
<path d="M4134 8750 c-12 -5 -25 -14 -29 -20 -7 -12 -54 -525 -55 -598 l0 -43
38 3 c30 2 38 7 40 26 2 12 6 22 10 22 4 0 36 5 71 10 90 13 119 5 136 -37 11
-25 19 -33 31 -29 8 3 25 6 35 6 19 0 20 5 14 88 -15 206 -46 508 -55 524 -6
10 -10 24 -10 32 0 8 -7 17 -16 20 -23 9 -186 6 -210 -4z m191 -35 c0 -18 -8
-20 -87 -23 -82 -3 -88 -1 -88 17 0 23 25 29 115 27 53 -1 60 -3 60 -21z m-22
-64 c26 -1 47 -4 47 -8 0 -5 -45 -7 -101 -5 -108 4 -129 -3 -129 -44 0 -12 -4
-25 -8 -28 -5 -3 -6 14 -3 37 6 39 9 42 41 48 19 3 51 5 70 3 19 -1 56 -3 83
-3z m91 -356 c9 -83 10 -132 4 -136 -5 -3 -26 0 -46 7 -47 17 -168 18 -227 2
-24 -7 -46 -10 -49 -7 -2 2 -1 29 4 59 l8 55 1 -54 c1 -46 3 -52 19 -46 63 24
105 29 174 18 40 -6 81 -14 91 -18 18 -7 18 -3 13 56 -9 103 -15 225 -10 209
2 -8 10 -73 18 -145z"/>
<path d="M4250 8715 c0 -12 8 -16 33 -13 17 2 32 8 32 13 0 6 -15 11 -32 13
-25 3 -33 -1 -33 -13z"/>
<path d="M4165 8710 c-4 -6 7 -10 24 -10 17 0 31 5 31 10 0 6 -11 10 -24 10
-14 0 -28 -4 -31 -10z"/>
<path d="M3384 8558 c-4 -7 -15 -41 -25 -76 -15 -55 -15 -64 -2 -69 20 -8 28
4 41 62 6 28 13 57 17 66 7 19 -21 34 -31 17z"/>
<path d="M3256 8403 c-14 -14 -4 -21 39 -28 25 -3 71 -15 102 -26 64 -22 73
-23 73 -9 0 15 -202 75 -214 63z"/>
<path d="M3147 8334 c-64 -15 -117 -40 -117 -54 0 -5 12 -5 30 1 50 18 56 4 7
-15 -33 -12 -47 -23 -47 -37 0 -16 4 -17 26 -9 36 14 39 13 20 -9 -10 -11 -15
-24 -12 -29 22 -36 93 0 82 41 -3 13 0 31 7 41 10 14 12 10 12 -26 -1 -24 -5
-51 -9 -61 -14 -30 8 -43 38 -23 28 18 31 31 17 68 -10 26 2 68 20 68 8 0 8
-5 -2 -16 -10 -12 -10 -22 0 -50 7 -19 10 -48 6 -64 -6 -29 -6 -30 32 -30 31
1 35 3 21 11 -20 11 -24 44 -7 55 6 3 9 17 6 30 -2 13 0 21 6 17 5 -3 6 -23 3
-44 -5 -31 -3 -40 13 -49 11 -5 27 -10 37 -10 16 0 16 1 0 19 -14 15 -15 24
-6 40 8 15 8 27 0 41 -7 13 -7 20 -1 20 17 0 29 -33 21 -56 -11 -27 -4 -34 33
-34 25 0 28 2 17 15 -7 8 -10 25 -7 37 4 12 1 28 -5 35 -8 10 -7 12 5 7 9 -3
17 -20 19 -36 3 -27 9 -34 46 -47 39 -14 45 -14 70 1 16 10 51 22 78 28 69 15
134 40 134 52 0 6 -8 7 -17 3 -10 -4 -51 -11 -92 -16 -40 -4 -89 -13 -108 -20
-32 -10 -37 -9 -57 11 l-21 22 22 -13 c17 -10 32 -11 70 -2 26 7 66 15 88 18
38 7 39 8 15 17 -17 7 -40 6 -73 -2 -28 -7 -52 -9 -57 -4 -5 5 1 10 13 11 12
0 38 5 57 10 26 7 31 11 18 15 -9 4 -32 3 -50 -3 -51 -14 -88 -11 -178 16 -93
28 -138 30 -223 9z"/>
<path d="M8975 10045 c-22 -13 -65 -31 -95 -39 -32 -9 -45 -15 -30 -15 41 -1
92 17 140 49 54 36 42 40 -15 5z"/>
<path d="M9069 10014 c-28 -35 -131 -74 -191 -74 -37 0 -58 -4 -58 -11 0 -16
98 -5 162 18 51 18 118 66 107 77 -3 4 -12 -1 -20 -10z"/>
<path d="M9195 9335 c-4 -32 -1 -61 10 -96 9 -27 20 -71 25 -97 l8 -47 1 43
c0 24 -6 69 -15 99 -10 36 -14 70 -9 99 3 26 2 44 -3 44 -5 0 -13 -20 -17 -45z"/>
<path d="M8935 9350 c3 -5 8 -10 11 -10 2 0 4 5 4 10 0 6 -5 10 -11 10 -5 0
-7 -4 -4 -10z"/>
<path d="M8550 9283 c-13 -27 -48 -73 -76 -103 -49 -53 -74 -91 -88 -136 -5
-15 2 -26 25 -43 l32 -24 -8 67 -7 67 50 48 c43 41 112 141 112 164 0 20 -18
2 -40 -40z"/>
<path d="M8945 9280 c-3 -5 -1 -10 4 -10 6 0 11 5 11 10 0 6 -2 10 -4 10 -3 0
-8 -4 -11 -10z"/>
<path d="M8955 9210 c3 -5 8 -10 11 -10 2 0 4 5 4 10 0 6 -5 10 -11 10 -5 0
-7 -4 -4 -10z"/>
<path d="M8960 9150 c0 -5 5 -10 10 -10 6 0 10 5 10 10 0 6 -4 10 -10 10 -5 0
-10 -4 -10 -10z"/>
<path d="M8205 9015 c-22 -8 -41 -15 -42 -15 -2 0 -3 -6 -3 -14 0 -36 98 -96
307 -189 54 -24 116 -56 137 -70 21 -15 49 -27 61 -27 31 0 38 -11 19 -31 -15
-17 -15 -19 -1 -25 23 -8 34 2 42 36 4 17 11 30 16 30 13 0 11 -31 -5 -62 -10
-20 -11 -30 -4 -34 19 -12 48 35 48 77 0 22 5 39 11 39 12 0 8 -65 -6 -107 -5
-17 -3 -23 8 -23 10 0 20 15 26 38 14 50 14 73 -3 114 -13 31 -21 36 -73 48
-104 23 -160 51 -280 141 -112 84 -120 89 -168 88 -27 0 -68 -6 -90 -14z"/>
<path d="M9386 8699 c-49 -55 -86 -102 -84 -105 6 -6 188 185 188 197 0 20
-19 3 -104 -92z"/>
<path d="M8846 8663 c-14 -14 -4 -42 20 -58 14 -9 43 -32 64 -51 28 -25 47
-34 64 -32 24 3 18 10 -58 75 -46 39 -87 69 -90 66z"/>
<path d="M8967 8643 c-24 -3 -37 -9 -34 -16 2 -7 15 -11 28 -10 13 2 94 5 179
7 85 3 154 9 153 13 -3 8 -260 13 -326 6z"/>
<path d="M9360 8622 c0 -5 20 -12 45 -15 25 -4 64 -16 87 -28 39 -20 41 -22
23 -35 -91 -67 -553 -70 -674 -4 l-25 13 30 23 c26 22 27 24 8 24 -11 0 -29
-9 -39 -20 -18 -20 -18 -21 2 -41 38 -38 144 -60 313 -66 177 -6 279 6 358 42
66 30 66 51 2 82 -51 24 -130 40 -130 25z"/>
<path d="M9165 8580 c-4 -6 -11 -8 -16 -5 -12 8 -49 -4 -49 -16 0 -5 8 -9 18
-9 14 0 15 -2 2 -9 -8 -6 -27 -7 -43 -4 -23 5 -29 3 -25 -8 6 -19 266 -26 282
-8 8 9 5 10 -11 6 -13 -3 -23 -1 -23 5 0 6 -12 8 -26 5 -18 -3 -24 -1 -20 9 4
10 -4 14 -27 15 -18 0 -26 3 -19 6 6 2 10 9 6 14 -7 12 -41 11 -49 -1z"/>
<path d="M9650 8571 c-78 -16 -81 -44 -8 -66 94 -27 269 -12 276 25 5 28 -40
43 -138 46 -52 2 -111 0 -130 -5z"/>
<path d="M9590 8490 c0 -10 66 -28 130 -36 56 -6 161 9 190 28 11 7 8 8 -10 3
-59 -15 -206 -16 -257 -2 -29 8 -53 11 -53 7z"/>
<path d="M9590 8440 c0 -24 159 -43 237 -29 78 14 93 19 93 30 0 6 -9 5 -22
-2 -35 -19 -195 -23 -255 -6 -29 8 -53 11 -53 7z"/>
<path d="M9630 8374 c43 -21 185 -24 249 -5 61 18 44 25 -26 11 -53 -11 -162
-9 -233 5 -18 4 -16 1 10 -11z"/>
<path d="M9600 8344 c0 -23 50 -38 136 -42 77 -4 98 -1 139 17 59 26 54 36 -9
20 -47 -12 -196 -8 -243 7 -13 3 -23 2 -23 -2z"/>
<path d="M9345 8202 c-256 -87 -261 -89 -254 -96 5 -5 516 168 526 178 14 13
-31 0 -272 -82z"/>
<path d="M9432 8183 c-128 -47 -230 -88 -228 -90 3 -3 22 1 43 7 51 17 417
152 422 157 21 17 -38 -1 -237 -74z"/>
<path d="M9028 4640 c-28 -25 -31 -31 -18 -39 8 -6 34 -25 57 -43 42 -33 52
-48 33 -48 -5 0 -10 5 -10 10 0 6 -21 24 -47 40 -39 25 -57 30 -109 30 l-62 0
21 -38 20 -38 76 1 c42 1 81 -3 88 -8 21 -15 49 2 62 38 6 19 28 48 48 64 l37
30 -37 16 c-20 8 -57 15 -82 15 -36 0 -51 -6 -77 -30z"/>
<path d="M8665 4585 c-14 -13 -25 -31 -25 -39 0 -8 -9 -21 -20 -29 -27 -19
-16 -51 14 -42 11 4 27 6 34 6 6 -1 25 -2 42 -3 17 -1 38 7 50 17 28 26 25 39
-5 19 -16 -10 -34 -14 -50 -10 -21 5 -25 12 -25 41 0 19 4 35 8 35 5 0 17 7
28 15 18 14 18 14 -4 15 -13 0 -34 -11 -47 -25z"/>
<path d="M8970 4470 c0 -5 -16 -24 -35 -41 -33 -30 -34 -33 -19 -50 9 -10 31
-23 49 -29 19 -6 41 -22 49 -36 22 -32 32 -30 71 9 63 63 54 157 -16 157 -17
0 -28 -4 -25 -8 3 -5 -8 -9 -24 -10 -17 0 -30 4 -30 9 0 5 -4 9 -10 9 -5 0
-10 -4 -10 -10z m41 -63 c-8 -8 -11 -5 -11 9 0 27 14 41 18 19 2 -9 -1 -22 -7
-28z m96 -33 c-8 -16 -27 -40 -41 -53 l-26 -24 0 24 c0 19 2 21 10 9 8 -13 10
-12 10 3 0 9 4 17 10 17 5 0 12 11 16 25 3 14 11 22 17 18 7 -4 8 0 3 13 -5
14 -4 16 4 8 9 -9 8 -19 -3 -40z"/>
<path d="M8566 4431 c-10 -11 -15 -24 -12 -29 3 -5 -15 -19 -39 -31 -49 -24
-61 -36 -45 -46 6 -4 8 -20 5 -38 -16 -84 35 -331 64 -312 5 3 13 -4 16 -16 6
-17 9 -19 16 -8 7 12 9 11 10 -1 0 -8 5 -4 9 10 8 25 8 25 10 -5 l1 -30 11 25
c10 24 10 24 18 5 7 -17 9 -16 11 10 1 24 3 26 6 8 5 -27 23 -31 24 -5 1 11 4
9 9 -8 8 -24 8 -24 9 -2 1 24 16 30 24 10 3 -7 6 -4 7 7 1 18 2 18 15 -5 13
-22 14 -23 15 -5 0 17 2 17 10 5 8 -13 10 -12 10 4 0 14 3 16 14 7 11 -9 12
-7 9 13 -4 22 -9 23 -46 19 l-42 -4 31 15 c18 7 34 18 37 23 2 4 0 36 -6 71
-6 42 -14 62 -24 62 -27 0 -69 -29 -81 -54 -6 -14 -17 -26 -24 -26 -9 0 -9 3
-1 11 16 16 -5 49 -25 41 -10 -3 -13 -1 -8 6 4 7 2 12 -4 12 -7 0 -10 7 -6 15
3 8 1 15 -5 15 -6 0 -7 5 -4 10 3 6 -1 10 -9 10 -9 0 -13 7 -11 20 2 11 -3 27
-11 35 -9 9 -11 15 -4 15 6 0 9 4 6 9 -4 5 4 22 17 38 32 38 47 67 47 92 0 27
-31 28 -54 2z"/>
<path d="M9163 4363 c-8 -21 -18 -56 -21 -78 -7 -60 -57 -105 -116 -105 -20 0
-24 -4 -20 -17 5 -17 5 -17 -6 0 -7 11 -24 17 -45 17 -19 0 -53 7 -75 16 -23
9 -43 14 -45 12 -6 -6 13 -159 20 -166 3 -3 6 28 6 69 2 63 3 68 9 34 4 -22 8
-31 9 -20 2 20 2 20 16 1 15 -19 15 -19 16 5 l1 24 7 -25 c5 -17 9 -21 15 -12
13 21 23 5 30 -47 5 -41 10 -50 31 -55 29 -7 154 -10 161 -4 8 9 31 108 25
108 -3 0 -21 -9 -39 -20 -18 -11 -39 -20 -48 -20 -8 0 -12 -4 -9 -10 3 -5 -2
-10 -11 -10 -15 0 -14 3 5 24 13 14 36 30 52 36 16 7 29 17 29 23 0 5 14 7 35
4 33 -5 35 -4 35 23 0 16 -5 41 -11 57 l-11 28 -16 -25 c-20 -30 -80 -90 -91
-90 -5 0 11 20 35 44 42 41 55 78 34 91 -16 10 -12 23 8 30 21 6 42 45 42 75
0 37 -39 24 -57 -17z m47 13 c0 -8 -9 -24 -20 -37 l-20 -24 6 30 c4 17 9 33
11 38 7 12 23 8 23 -7z"/>
<path d="M8930 4330 c13 -8 12 -10 -2 -10 -10 0 -18 -4 -18 -10 0 -5 6 -10 14
-10 8 0 16 -7 20 -15 8 -21 36 -19 36 3 0 22 -30 52 -51 52 -12 0 -11 -2 1
-10z"/>
<path d="M9220 4252 c0 -4 4 -13 9 -20 6 -10 10 -10 20 1 9 12 7 16 -9 20 -11
3 -20 2 -20 -1z"/>
<path d="M9275 4248 c-3 -7 -7 -27 -9 -44 -4 -36 6 -38 47 -11 34 22 34 41 2
55 -32 15 -35 15 -40 0z"/>
<path d="M8783 4204 c-8 -21 5 -134 20 -180 14 -38 40 -64 53 -52 3 4 -1 28
-10 55 -9 26 -18 71 -22 98 -8 75 -13 95 -25 95 -5 0 -12 -7 -16 -16z"/>
<path d="M9313 4158 c-41 -69 -53 -101 -53 -146 0 -28 3 -33 10 -22 6 9 10 10
10 3 0 -6 9 -11 19 -10 16 1 22 14 32 65 6 35 22 83 35 107 12 24 20 46 17 49
-17 17 -42 1 -70 -46z"/>
<path d="M9402 4188 c-5 -7 -19 -32 -31 -55 -24 -48 -41 -161 -23 -149 8 5 12
-1 13 -16 1 -14 5 -8 10 17 21 89 32 121 50 147 11 14 19 36 19 47 0 23 -22
28 -38 9z"/>
<path d="M9436 4127 c-38 -65 -48 -98 -40 -137 5 -30 8 -32 14 -15 8 19 9 19
9 1 1 -15 4 -16 16 -6 12 10 15 10 15 -1 0 -11 2 -11 10 1 6 9 10 10 10 3 0
-6 -5 -15 -11 -18 -16 -10 -28 -49 -40 -128 -15 -109 -24 -124 -70 -132 -22
-4 -54 -19 -70 -33 -30 -25 -31 -26 -10 -34 19 -7 21 -12 15 -64 l-7 -57 27 5
c14 3 29 2 31 -2 5 -9 81 -6 111 4 31 10 48 58 41 111 -4 25 -2 47 3 50 7 4 6
13 0 25 -9 17 -8 19 7 13 16 -6 16 -5 4 10 -12 16 -12 17 5 10 17 -6 17 -5 5
10 -16 20 -2 23 19 5 8 -8 6 -1 -4 15 -17 28 -17 28 3 18 18 -10 20 -9 14 6
-6 16 -5 16 10 4 22 -18 22 -3 0 23 -10 12 -11 15 -3 9 20 -18 30 -16 23 5 -6
15 -5 15 10 3 20 -16 23 -2 5 18 -11 11 -10 13 5 8 20 -7 22 3 5 22 -11 11 -9
11 9 2 21 -11 23 -10 19 11 -3 13 -5 23 -6 23 -1 0 -3 12 -4 28 -1 18 3 27 14
28 11 0 10 2 -3 8 -10 4 -18 11 -18 16 0 5 8 12 18 16 17 7 16 8 -2 8 -17 1
-18 3 -5 11 13 9 13 12 -2 24 -10 7 -18 18 -18 23 0 20 -52 62 -96 77 l-44 15
-24 -42z m53 -126 c-1 -20 -2 -22 -6 -6 -3 11 -9 24 -14 30 -15 15 -10 28 6
15 8 -7 14 -24 14 -39z m-9 -371 c0 -5 -4 -10 -9 -10 -6 0 -13 5 -16 10 -3 6
1 10 9 10 9 0 16 -4 16 -10z m-5 -49 c-6 -28 -39 -61 -60 -61 -7 0 -18 7 -25
15 -9 11 -9 15 -1 15 7 0 9 5 5 11 -4 7 1 7 16 -1 20 -11 22 -10 17 3 -4 12
-2 14 10 10 11 -4 14 -2 9 5 -4 7 -2 12 5 12 9 0 9 3 0 14 -10 12 -8 13 9 9
17 -5 20 -11 15 -32z"/>
<path d="M8912 3979 c2 -6 8 -10 13 -10 5 0 11 4 13 10 2 6 -4 11 -13 11 -9 0
-15 -5 -13 -11z"/>
<path d="M9195 3971 c-7 -12 12 -24 25 -16 11 7 4 25 -10 25 -5 0 -11 -4 -15
-9z"/>
<path d="M9304 3935 c21 -16 32 -13 21 4 -3 6 -14 11 -23 11 -15 -1 -15 -2 2
-15z"/>
<path d="M9366 3925 c-11 -8 -15 -15 -9 -15 5 0 15 -28 20 -62 10 -67 13 -65
33 21 10 44 10 55 -1 62 -18 11 -20 11 -43 -6z"/>
<path d="M8986 3902 c-6 -11 39 -112 55 -123 19 -12 141 -11 172 0 l25 10 -15
60 -15 61 -109 0 c-59 0 -110 -3 -113 -8z m213 -49 c6 -21 11 -41 11 -45 0
-10 -124 -21 -148 -14 -17 6 -42 51 -42 77 0 7 32 11 137 17 29 2 33 -1 42
-35z"/>
<path d="M9122 3695 c-12 -25 -24 -64 -28 -88 -3 -23 -7 -52 -10 -64 -3 -16 1
-23 18 -26 l23 -4 -22 -2 c-19 -1 -23 -7 -23 -31 0 -28 2 -30 40 -30 44 0 48
8 30 70 -5 18 -6 36 -1 39 9 7 10 181 1 181 -3 0 -16 -20 -28 -45z"/>
<path d="M9170 3606 c0 -13 41 -26 81 -26 35 0 20 27 -18 34 -55 9 -63 8 -63
-8z"/>
<path d="M9507 3573 c-4 -3 -7 -10 -7 -14 0 -9 99 -23 125 -17 18 3 18 4 1 21
-17 17 -105 25 -119 10z"/>
<path d="M9170 3560 c0 -8 81 -20 89 -13 8 6 -4 10 -46 16 -24 3 -43 1 -43 -3z"/>
<path d="M9371 3462 c-1 -19 6 -49 15 -67 18 -39 43 -54 41 -25 -1 10 -4 17
-8 14 -10 -6 -19 10 -25 40 -2 14 -8 35 -13 48 -9 21 -10 20 -10 -10z"/>
<path d="M9275 3278 c-38 -16 -95 -35 -125 -43 -38 -9 -46 -14 -27 -14 33 -1
161 40 215 69 56 29 16 22 -63 -12z"/>
<path d="M9283 3248 c-13 -6 -23 -14 -23 -17 0 -9 81 -101 89 -101 4 0 16 7
27 15 18 15 18 15 0 8 -13 -4 -17 -3 -12 5 4 7 2 12 -4 12 -6 0 -8 5 -5 10 3
6 1 10 -5 10 -6 0 -8 5 -5 10 3 6 -1 10 -10 10 -9 0 -13 5 -10 10 3 6 -1 13
-9 16 -9 3 -13 10 -10 15 6 11 5 11 -23 -3z"/>
<path d="M9065 3196 c36 -12 38 -14 15 -18 -23 -5 -23 -6 9 -13 31 -7 33 -9
16 -22 -17 -12 -15 -13 21 -13 l39 -1 -30 -14 -30 -13 28 -1 c16 -1 26 -5 22
-11 -4 -6 12 -10 39 -10 57 0 59 14 10 64 -42 43 -60 51 -129 59 l-50 6 40
-13z"/>
<path d="M4229 4403 c-15 -9 -35 -30 -45 -47 l-18 -31 42 38 c60 53 131 54
226 4 129 -68 178 -148 158 -257 -13 -73 -7 -76 13 -6 14 48 15 65 5 107 -25
103 -175 209 -294 209 -39 0 -71 -7 -87 -17z"/>
<path d="M8356 3805 c-20 -21 -9 -45 20 -45 29 0 41 24 24 45 -16 19 -25 19
-44 0z"/>
<path d="M8537 3274 c-12 -13 -8 -42 8 -48 25 -9 46 5 43 28 -3 21 -37 34 -51
20z"/>
</g>
</svg>
